<svg xmlns="http://www.w3.org/2000/svg" viewBox="0 0 415 276"><title>Portfolio Full</title><path d="M415,276H0V0H415Z"/><path d="M212.4,63.6q18.19,0,28.4,4.4T256,79.8a37.67,37.67,0,0,1,6.1,17.1q1.09,9.7,1.5,20.3v.4q-.41,10.61-1.5,20.3A37.67,37.67,0,0,1,256,155q-5,7.4-15.2,11.8t-28.4,4.4H198v39.2H162V63.6ZM198,139h15.6a10.37,10.37,0,0,0,7.5-2.6,18.35,18.35,0,0,0,4.2-6.1,25,25,0,0,0,1.9-7.1,52.52,52.52,0,0,0,.4-5.6,57,57,0,0,0-.4-5.7,26.38,26.38,0,0,0-1.9-7.3,17.57,17.57,0,0,0-4.3-6.2,10.47,10.47,0,0,0-7.4-2.6H198Z" fill="#fff"/></svg>